<svg width="1366" height="1024" viewBox="0 0 1366 1024" fill="none" xmlns="http://www.w3.org/2000/svg">
<rect width="1366" height="1024" fill="white"/>
<rect x="555.04" y="31" width="293.474" height="127.541" transform="rotate(26.566 555.04 31)" fill="#D9D9D9"/>
<rect x="230.024" y="88" width="251.74" height="157.409" transform="rotate(12.2327 230.024 88)" fill="#D9D9D9"/>
<rect x="250.42" y="107.49" width="210.801" height="127.303" transform="rotate(12.2327 250.42 107.49)" fill="#A6A6A6"/>
<rect x="423.932" y="112" width="13.0072" height="51.5944" transform="rotate(12.2327 423.932 112)" fill="#A6A6A6"/>
<rect x="832.04" y="169" width="293.474" height="127.541" transform="rotate(26.566 832.04 169)" fill="#D9D9D9"/>
<rect x="811.756" y="209.567" width="162.477" height="82.1854" transform="rotate(26.566 811.756 209.567)" fill="#A6A6A6"/>
<rect x="762.869" y="448.828" width="199.099" height="23.5272" transform="rotate(-58.4136 762.869 448.828)" fill="#A6A6A6"/>
<rect x="895.983" y="251.841" width="199.099" height="23.5272" transform="rotate(26.57 895.983 251.841)" fill="#A6A6A6"/>
<rect x="532.007" y="76.7325" width="293.596" height="23.5272" transform="rotate(26.57 532.007 76.7325)" fill="#A6A6A6"/>
<rect x="678.078" y="92.7136" width="22.9357" height="127.609" transform="rotate(26.57 678.078 92.7136)" fill="#A6A6A6"/>
<rect x="736" y="475.772" width="42.5355" height="12.96" transform="rotate(-46.3396 736 475.772)" fill="#A6A6A6"/>
<rect x="703.372" y="499.164" width="42.5355" height="12.96" transform="rotate(-36.1253 703.372 499.164)" fill="#A6A6A6"/>
<rect x="391.061" y="431.239" width="148.743" height="12.96" transform="rotate(-75.8639 391.061 431.239)" fill="#A6A6A6"/>
<rect x="672" y="522.077" width="42.5355" height="12.96" transform="rotate(-36.1253 672 522.077)" fill="#A6A6A6"/>
<rect x="716.757" y="607.115" width="88.3201" height="96.1622" transform="rotate(159.211 716.757 607.115)" fill="#A6A6A6"/>
<rect x="698.089" y="625.855" width="88.3201" height="96.1622" transform="rotate(121.548 698.089 625.855)" fill="#A6A6A6"/>
<rect x="736.082" y="669.947" width="88.3201" height="81.0599" transform="rotate(159.542 736.082 669.947)" fill="#A6A6A6"/>
<rect x="681" y="525.605" width="259.41" height="97.2106" transform="rotate(-20.7321 681 525.605)" fill="#D9D9D9"/>
<rect x="430.669" y="387.491" width="257.742" height="97.2106" transform="rotate(32.0371 430.669 387.491)" fill="#D9D9D9"/>
<rect x="341.162" y="492.853" width="393.958" height="102.103" transform="rotate(32.0371 341.162 492.853)" fill="#D9D9D9"/>
<rect x="1069.97" y="632" width="429.736" height="102.103" transform="rotate(158.503 1069.97 632)" fill="#D9D9D9"/>
<rect x="667.477" y="896.555" width="72.2554" height="157.85" transform="rotate(-174.993 667.477 896.555)" fill="#D9D9D9"/>
<rect x="750.38" y="813.464" width="67.4807" height="94.5322" transform="rotate(158.918 750.38 813.464)" fill="#D9D9D9" stroke="#8D8D8D" stroke-width="6"/>
<rect x="584.633" y="830.711" width="72.0946" height="97.3197" transform="rotate(-148.232 584.633 830.711)" fill="#D9D9D9" stroke="#8D8D8D" stroke-width="6"/>
<rect x="889.056" y="781.934" width="353.408" height="23.5272" transform="rotate(-111.767 889.056 781.934)" fill="#A6A6A6"/>
<rect x="421.156" y="664.563" width="240.387" height="23.5272" transform="rotate(-57.4214 421.156 664.563)" fill="#A6A6A6"/>
<rect x="619.953" y="572.495" width="269.022" height="12.96" transform="rotate(-148.244 619.953 572.495)" fill="#A6A6A6"/>
<rect x="643.417" y="750.391" width="392.117" height="12.96" transform="rotate(-148.244 643.417 750.391)" fill="#A6A6A6"/>
<rect x="637.898" y="738.262" width="440.933" height="12.96" transform="rotate(-20.7047 637.898 738.262)" fill="#A6A6A6"/>
<rect x="657.434" y="670.814" width="223.513" height="12.96" transform="rotate(94.8026 657.434 670.814)" fill="#A6A6A6"/>
<rect x="943.328" y="486.22" width="286.878" height="12.96" transform="rotate(159.211 943.328 486.22)" fill="#A6A6A6"/>
<rect x="364.846" y="48" width="116.888" height="55.9086" transform="rotate(12.2327 364.846 48)" fill="#D9D9D9"/>
</svg>
